<mxfile host="Electron" agent="Mozilla/5.0 (Macintosh; Intel Mac OS X 10_15_7) AppleWebKit/537.36 (KHTML, like Gecko) draw.io/26.1.1 Chrome/132.0.6834.210 Electron/34.3.3 Safari/537.36" version="26.1.1">
  <diagram name="Page-1" id="23jQEefdzc2tP_5x-trr">
    <mxGraphModel dx="1158" dy="748" grid="1" gridSize="10" guides="1" tooltips="1" connect="1" arrows="1" fold="1" page="1" pageScale="1" pageWidth="827" pageHeight="1169" math="0" shadow="0">
      <root>
        <mxCell id="0" />
        <mxCell id="1" parent="0" />
        <mxCell id="SifQQTdtY4vk-8Dur9de-43" value="Job Seeker" style="shape=umlLifeline;perimeter=lifelinePerimeter;whiteSpace=wrap;container=1;dropTarget=0;collapsible=0;recursiveResize=0;outlineConnect=0;portConstraint=eastwest;newEdgeStyle={&quot;edgeStyle&quot;:&quot;elbowEdgeStyle&quot;,&quot;elbow&quot;:&quot;vertical&quot;,&quot;curved&quot;:0,&quot;rounded&quot;:0};size=65;" parent="1" vertex="1">
          <mxGeometry x="820" y="70" width="150" height="1310" as="geometry" />
        </mxCell>
        <mxCell id="SifQQTdtY4vk-8Dur9de-44" value="System" style="shape=umlLifeline;perimeter=lifelinePerimeter;whiteSpace=wrap;container=1;dropTarget=0;collapsible=0;recursiveResize=0;outlineConnect=0;portConstraint=eastwest;newEdgeStyle={&quot;edgeStyle&quot;:&quot;elbowEdgeStyle&quot;,&quot;elbow&quot;:&quot;vertical&quot;,&quot;curved&quot;:0,&quot;rounded&quot;:0};size=65;" parent="1" vertex="1">
          <mxGeometry x="1077" y="70" width="150" height="1400" as="geometry" />
        </mxCell>
        <mxCell id="SifQQTdtY4vk-8Dur9de-45" value="Employer" style="shape=umlLifeline;perimeter=lifelinePerimeter;whiteSpace=wrap;container=1;dropTarget=0;collapsible=0;recursiveResize=0;outlineConnect=0;portConstraint=eastwest;newEdgeStyle={&quot;edgeStyle&quot;:&quot;elbowEdgeStyle&quot;,&quot;elbow&quot;:&quot;vertical&quot;,&quot;curved&quot;:0,&quot;rounded&quot;:0};size=65;" parent="1" vertex="1">
          <mxGeometry x="1352" y="70" width="150" height="1410" as="geometry" />
        </mxCell>
        <mxCell id="SifQQTdtY4vk-8Dur9de-46" value="Administrator&#xa;" style="shape=umlLifeline;perimeter=lifelinePerimeter;whiteSpace=wrap;container=1;dropTarget=0;collapsible=0;recursiveResize=0;outlineConnect=0;portConstraint=eastwest;newEdgeStyle={&quot;edgeStyle&quot;:&quot;elbowEdgeStyle&quot;,&quot;elbow&quot;:&quot;vertical&quot;,&quot;curved&quot;:0,&quot;rounded&quot;:0};size=65;" parent="1" vertex="1">
          <mxGeometry x="1552" y="70" width="150" height="1120" as="geometry" />
        </mxCell>
        <mxCell id="SifQQTdtY4vk-8Dur9de-47" value="1: Register Account" style="verticalAlign=bottom;edgeStyle=elbowEdgeStyle;elbow=vertical;curved=0;rounded=0;endArrow=block;" parent="1" source="SifQQTdtY4vk-8Dur9de-43" target="SifQQTdtY4vk-8Dur9de-44" edge="1">
          <mxGeometry relative="1" as="geometry">
            <Array as="points">
              <mxPoint x="1032" y="173" />
            </Array>
          </mxGeometry>
        </mxCell>
        <mxCell id="SifQQTdtY4vk-8Dur9de-48" value="2: Account Created" style="verticalAlign=bottom;edgeStyle=elbowEdgeStyle;elbow=vertical;curved=0;rounded=0;dashed=1;dashPattern=2 3;endArrow=block;" parent="1" source="SifQQTdtY4vk-8Dur9de-44" target="SifQQTdtY4vk-8Dur9de-43" edge="1">
          <mxGeometry relative="1" as="geometry">
            <Array as="points">
              <mxPoint x="1035" y="221" />
            </Array>
          </mxGeometry>
        </mxCell>
        <mxCell id="SifQQTdtY4vk-8Dur9de-49" value="3: Register Company" style="verticalAlign=bottom;edgeStyle=elbowEdgeStyle;elbow=vertical;curved=0;rounded=0;endArrow=block;" parent="1" source="SifQQTdtY4vk-8Dur9de-45" target="SifQQTdtY4vk-8Dur9de-44" edge="1">
          <mxGeometry relative="1" as="geometry">
            <Array as="points">
              <mxPoint x="1301" y="269" />
            </Array>
          </mxGeometry>
        </mxCell>
        <mxCell id="SifQQTdtY4vk-8Dur9de-50" value="4: Company Registered" style="verticalAlign=bottom;edgeStyle=elbowEdgeStyle;elbow=vertical;curved=0;rounded=0;dashed=1;dashPattern=2 3;endArrow=block;" parent="1" source="SifQQTdtY4vk-8Dur9de-44" target="SifQQTdtY4vk-8Dur9de-45" edge="1">
          <mxGeometry relative="1" as="geometry">
            <Array as="points">
              <mxPoint x="1298" y="317" />
            </Array>
          </mxGeometry>
        </mxCell>
        <mxCell id="SifQQTdtY4vk-8Dur9de-51" value="5: Login" style="verticalAlign=bottom;edgeStyle=elbowEdgeStyle;elbow=vertical;curved=0;rounded=0;endArrow=block;" parent="1" source="SifQQTdtY4vk-8Dur9de-43" target="SifQQTdtY4vk-8Dur9de-44" edge="1">
          <mxGeometry relative="1" as="geometry">
            <Array as="points">
              <mxPoint x="1032" y="365" />
            </Array>
          </mxGeometry>
        </mxCell>
        <mxCell id="SifQQTdtY4vk-8Dur9de-52" value="6: Login Successful" style="verticalAlign=bottom;edgeStyle=elbowEdgeStyle;elbow=vertical;curved=0;rounded=0;dashed=1;dashPattern=2 3;endArrow=block;" parent="1" source="SifQQTdtY4vk-8Dur9de-44" target="SifQQTdtY4vk-8Dur9de-43" edge="1">
          <mxGeometry relative="1" as="geometry">
            <Array as="points">
              <mxPoint x="1035" y="413" />
            </Array>
          </mxGeometry>
        </mxCell>
        <mxCell id="SifQQTdtY4vk-8Dur9de-53" value="7: Login" style="verticalAlign=bottom;edgeStyle=elbowEdgeStyle;elbow=vertical;curved=0;rounded=0;endArrow=block;" parent="1" source="SifQQTdtY4vk-8Dur9de-45" target="SifQQTdtY4vk-8Dur9de-44" edge="1">
          <mxGeometry relative="1" as="geometry">
            <Array as="points">
              <mxPoint x="1301" y="461" />
            </Array>
          </mxGeometry>
        </mxCell>
        <mxCell id="SifQQTdtY4vk-8Dur9de-54" value="8: Login Successful" style="verticalAlign=bottom;edgeStyle=elbowEdgeStyle;elbow=vertical;curved=0;rounded=0;dashed=1;dashPattern=2 3;endArrow=block;" parent="1" source="SifQQTdtY4vk-8Dur9de-44" target="SifQQTdtY4vk-8Dur9de-45" edge="1">
          <mxGeometry relative="1" as="geometry">
            <Array as="points">
              <mxPoint x="1298" y="509" />
            </Array>
          </mxGeometry>
        </mxCell>
        <mxCell id="SifQQTdtY4vk-8Dur9de-55" value="9: Search Jobs" style="verticalAlign=bottom;edgeStyle=elbowEdgeStyle;elbow=vertical;curved=0;rounded=0;endArrow=block;" parent="1" source="SifQQTdtY4vk-8Dur9de-43" target="SifQQTdtY4vk-8Dur9de-44" edge="1">
          <mxGeometry relative="1" as="geometry">
            <Array as="points">
              <mxPoint x="1032" y="557" />
            </Array>
          </mxGeometry>
        </mxCell>
        <mxCell id="SifQQTdtY4vk-8Dur9de-56" value="10: Display Job Listings" style="verticalAlign=bottom;edgeStyle=elbowEdgeStyle;elbow=vertical;curved=0;rounded=0;dashed=1;dashPattern=2 3;endArrow=block;" parent="1" source="SifQQTdtY4vk-8Dur9de-44" target="SifQQTdtY4vk-8Dur9de-43" edge="1">
          <mxGeometry relative="1" as="geometry">
            <Array as="points">
              <mxPoint x="1035" y="605" />
            </Array>
          </mxGeometry>
        </mxCell>
        <mxCell id="SifQQTdtY4vk-8Dur9de-57" value="11: Apply for Job" style="verticalAlign=bottom;edgeStyle=elbowEdgeStyle;elbow=vertical;curved=0;rounded=0;endArrow=block;" parent="1" source="SifQQTdtY4vk-8Dur9de-43" target="SifQQTdtY4vk-8Dur9de-44" edge="1">
          <mxGeometry relative="1" as="geometry">
            <Array as="points">
              <mxPoint x="1032" y="653" />
            </Array>
          </mxGeometry>
        </mxCell>
        <mxCell id="SifQQTdtY4vk-8Dur9de-58" value="12: Notify New Application" style="verticalAlign=bottom;edgeStyle=elbowEdgeStyle;elbow=vertical;curved=0;rounded=0;endArrow=block;" parent="1" source="SifQQTdtY4vk-8Dur9de-44" target="SifQQTdtY4vk-8Dur9de-45" edge="1">
          <mxGeometry relative="1" as="geometry">
            <Array as="points">
              <mxPoint x="1298" y="701" />
            </Array>
          </mxGeometry>
        </mxCell>
        <mxCell id="SifQQTdtY4vk-8Dur9de-59" value="13: Acknowledge" style="verticalAlign=bottom;edgeStyle=elbowEdgeStyle;elbow=vertical;curved=0;rounded=0;dashed=1;dashPattern=2 3;endArrow=block;" parent="1" source="SifQQTdtY4vk-8Dur9de-45" target="SifQQTdtY4vk-8Dur9de-44" edge="1">
          <mxGeometry relative="1" as="geometry">
            <Array as="points">
              <mxPoint x="1301" y="749" />
            </Array>
          </mxGeometry>
        </mxCell>
        <mxCell id="SifQQTdtY4vk-8Dur9de-60" value="14: Application Confirmed" style="verticalAlign=bottom;edgeStyle=elbowEdgeStyle;elbow=vertical;curved=0;rounded=0;dashed=1;dashPattern=2 3;endArrow=block;" parent="1" source="SifQQTdtY4vk-8Dur9de-44" target="SifQQTdtY4vk-8Dur9de-43" edge="1">
          <mxGeometry relative="1" as="geometry">
            <Array as="points">
              <mxPoint x="1035" y="797" />
            </Array>
          </mxGeometry>
        </mxCell>
        <mxCell id="SifQQTdtY4vk-8Dur9de-61" value="15: Post Job Opening" style="verticalAlign=bottom;edgeStyle=elbowEdgeStyle;elbow=vertical;curved=0;rounded=0;endArrow=block;" parent="1" source="SifQQTdtY4vk-8Dur9de-45" target="SifQQTdtY4vk-8Dur9de-44" edge="1">
          <mxGeometry relative="1" as="geometry">
            <Array as="points">
              <mxPoint x="1301" y="845" />
            </Array>
          </mxGeometry>
        </mxCell>
        <mxCell id="SifQQTdtY4vk-8Dur9de-62" value="16: Request Approval" style="verticalAlign=bottom;edgeStyle=elbowEdgeStyle;elbow=vertical;curved=0;rounded=0;endArrow=block;" parent="1" source="SifQQTdtY4vk-8Dur9de-44" target="SifQQTdtY4vk-8Dur9de-46" edge="1">
          <mxGeometry relative="1" as="geometry">
            <Array as="points">
              <mxPoint x="1398" y="893" />
            </Array>
          </mxGeometry>
        </mxCell>
        <mxCell id="SifQQTdtY4vk-8Dur9de-63" value="17: Approve Job Posting" style="verticalAlign=bottom;edgeStyle=elbowEdgeStyle;elbow=vertical;curved=0;rounded=0;dashed=1;dashPattern=2 3;endArrow=block;" parent="1" source="SifQQTdtY4vk-8Dur9de-46" target="SifQQTdtY4vk-8Dur9de-44" edge="1">
          <mxGeometry relative="1" as="geometry">
            <Array as="points">
              <mxPoint x="1401" y="941" />
            </Array>
          </mxGeometry>
        </mxCell>
        <mxCell id="SifQQTdtY4vk-8Dur9de-64" value="18: Job Posted Confirmation" style="verticalAlign=bottom;edgeStyle=elbowEdgeStyle;elbow=vertical;curved=0;rounded=0;dashed=1;dashPattern=2 3;endArrow=block;" parent="1" source="SifQQTdtY4vk-8Dur9de-44" target="SifQQTdtY4vk-8Dur9de-45" edge="1">
          <mxGeometry relative="1" as="geometry">
            <Array as="points">
              <mxPoint x="1298" y="989" />
            </Array>
          </mxGeometry>
        </mxCell>
        <mxCell id="SifQQTdtY4vk-8Dur9de-65" value="19: Manage User Accounts" style="verticalAlign=bottom;edgeStyle=elbowEdgeStyle;elbow=vertical;curved=0;rounded=0;endArrow=block;" parent="1" source="SifQQTdtY4vk-8Dur9de-46" target="SifQQTdtY4vk-8Dur9de-44" edge="1">
          <mxGeometry relative="1" as="geometry">
            <Array as="points">
              <mxPoint x="1401" y="1037" />
            </Array>
          </mxGeometry>
        </mxCell>
        <mxCell id="SifQQTdtY4vk-8Dur9de-66" value="20: User Accounts List" style="verticalAlign=bottom;edgeStyle=elbowEdgeStyle;elbow=vertical;curved=0;rounded=0;dashed=1;dashPattern=2 3;endArrow=block;" parent="1" source="SifQQTdtY4vk-8Dur9de-44" target="SifQQTdtY4vk-8Dur9de-46" edge="1">
          <mxGeometry relative="1" as="geometry">
            <Array as="points">
              <mxPoint x="1398" y="1085" />
            </Array>
          </mxGeometry>
        </mxCell>
        <mxCell id="SifQQTdtY4vk-8Dur9de-67" value="21: Remove Inappropriate Content" style="verticalAlign=bottom;edgeStyle=elbowEdgeStyle;elbow=vertical;curved=0;rounded=0;endArrow=block;" parent="1" source="SifQQTdtY4vk-8Dur9de-46" target="SifQQTdtY4vk-8Dur9de-44" edge="1">
          <mxGeometry relative="1" as="geometry">
            <Array as="points">
              <mxPoint x="1401" y="1133" />
            </Array>
          </mxGeometry>
        </mxCell>
        <mxCell id="SifQQTdtY4vk-8Dur9de-68" value="22: Content Removed Confirmation" style="verticalAlign=bottom;edgeStyle=elbowEdgeStyle;elbow=vertical;curved=0;rounded=0;dashed=1;dashPattern=2 3;endArrow=block;" parent="1" source="SifQQTdtY4vk-8Dur9de-44" target="SifQQTdtY4vk-8Dur9de-46" edge="1">
          <mxGeometry relative="1" as="geometry">
            <Array as="points">
              <mxPoint x="1398" y="1181" />
            </Array>
          </mxGeometry>
        </mxCell>
        <mxCell id="SifQQTdtY4vk-8Dur9de-69" value="23: View Applications" style="verticalAlign=bottom;edgeStyle=elbowEdgeStyle;elbow=vertical;curved=0;rounded=0;endArrow=block;" parent="1" source="SifQQTdtY4vk-8Dur9de-45" target="SifQQTdtY4vk-8Dur9de-44" edge="1">
          <mxGeometry relative="1" as="geometry">
            <Array as="points">
              <mxPoint x="1301" y="1229" />
            </Array>
          </mxGeometry>
        </mxCell>
        <mxCell id="SifQQTdtY4vk-8Dur9de-70" value="24: Display Applications" style="verticalAlign=bottom;edgeStyle=elbowEdgeStyle;elbow=vertical;curved=0;rounded=0;dashed=1;dashPattern=2 3;endArrow=block;" parent="1" source="SifQQTdtY4vk-8Dur9de-44" target="SifQQTdtY4vk-8Dur9de-45" edge="1">
          <mxGeometry relative="1" as="geometry">
            <Array as="points">
              <mxPoint x="1298" y="1277" />
            </Array>
          </mxGeometry>
        </mxCell>
        <mxCell id="SifQQTdtY4vk-8Dur9de-71" value="25: Update Profile" style="verticalAlign=bottom;edgeStyle=elbowEdgeStyle;elbow=vertical;curved=0;rounded=0;endArrow=block;" parent="1" source="SifQQTdtY4vk-8Dur9de-43" target="SifQQTdtY4vk-8Dur9de-44" edge="1">
          <mxGeometry relative="1" as="geometry">
            <Array as="points">
              <mxPoint x="1032" y="1325" />
            </Array>
          </mxGeometry>
        </mxCell>
        <mxCell id="SifQQTdtY4vk-8Dur9de-72" value="26: Profile Updated" style="verticalAlign=bottom;edgeStyle=elbowEdgeStyle;elbow=vertical;curved=0;rounded=0;dashed=1;dashPattern=2 3;endArrow=block;" parent="1" source="SifQQTdtY4vk-8Dur9de-44" target="SifQQTdtY4vk-8Dur9de-43" edge="1">
          <mxGeometry relative="1" as="geometry">
            <Array as="points">
              <mxPoint x="1035" y="1373" />
            </Array>
          </mxGeometry>
        </mxCell>
        <mxCell id="SifQQTdtY4vk-8Dur9de-73" value="27: Update Company Profile" style="verticalAlign=bottom;edgeStyle=elbowEdgeStyle;elbow=vertical;curved=0;rounded=0;endArrow=block;" parent="1" source="SifQQTdtY4vk-8Dur9de-45" target="SifQQTdtY4vk-8Dur9de-44" edge="1">
          <mxGeometry relative="1" as="geometry">
            <Array as="points">
              <mxPoint x="1301" y="1421" />
            </Array>
          </mxGeometry>
        </mxCell>
        <mxCell id="SifQQTdtY4vk-8Dur9de-74" value="28: Profile Updated" style="verticalAlign=bottom;edgeStyle=elbowEdgeStyle;elbow=vertical;curved=0;rounded=0;dashed=1;dashPattern=2 3;endArrow=block;" parent="1" source="SifQQTdtY4vk-8Dur9de-44" target="SifQQTdtY4vk-8Dur9de-45" edge="1">
          <mxGeometry relative="1" as="geometry">
            <Array as="points">
              <mxPoint x="1298" y="1469" />
            </Array>
          </mxGeometry>
        </mxCell>
      </root>
    </mxGraphModel>
  </diagram>
</mxfile>
